<svg width="425" height="24" viewBox="0 0 425 24" fill="none" xmlns="http://www.w3.org/2000/svg">
<path d="M14.2222 6.66667V18.3333H1.77778V6.66667H14.2222ZM14.2222 5H1.77778C0.8 5 0 5.75 0 6.66667V18.3333C0 19.25 0.8 20 1.77778 20H14.2222C15.2 20 16 19.25 16 18.3333V6.66667C16 5.75 15.2 5 14.2222 5Z" fill="#212121"/>
<path d="M33.1334 7.04688V17H31.8209V8.12695H26.9127V17H25.5934V7.04688H33.1334ZM35.4196 13.3838V13.2266C35.4196 12.6934 35.4971 12.1989 35.652 11.7432C35.807 11.2829 36.0303 10.8841 36.3219 10.5469C36.6136 10.2051 36.9668 9.94076 37.3815 9.75391C37.7962 9.5625 38.2611 9.4668 38.776 9.4668C39.2956 9.4668 39.7627 9.5625 40.1774 9.75391C40.5967 9.94076 40.9522 10.2051 41.2438 10.5469C41.54 10.8841 41.7656 11.2829 41.9206 11.7432C42.0755 12.1989 42.153 12.6934 42.153 13.2266V13.3838C42.153 13.917 42.0755 14.4115 41.9206 14.8672C41.7656 15.3229 41.54 15.7217 41.2438 16.0635C40.9522 16.4007 40.599 16.665 40.1843 16.8564C39.7741 17.0433 39.3093 17.1367 38.7897 17.1367C38.2702 17.1367 37.8031 17.0433 37.3884 16.8564C36.9736 16.665 36.6182 16.4007 36.3219 16.0635C36.0303 15.7217 35.807 15.3229 35.652 14.8672C35.4971 14.4115 35.4196 13.917 35.4196 13.3838ZM36.6843 13.2266V13.3838C36.6843 13.7529 36.7275 14.1016 36.8141 14.4297C36.9007 14.7533 37.0306 15.0404 37.2038 15.291C37.3815 15.5417 37.6025 15.7399 37.8669 15.8857C38.1312 16.027 38.4388 16.0977 38.7897 16.0977C39.1361 16.0977 39.4391 16.027 39.6989 15.8857C39.9632 15.7399 40.182 15.5417 40.3552 15.291C40.5283 15.0404 40.6582 14.7533 40.7448 14.4297C40.8359 14.1016 40.8815 13.7529 40.8815 13.3838V13.2266C40.8815 12.862 40.8359 12.5179 40.7448 12.1943C40.6582 11.8662 40.526 11.5768 40.3483 11.3262C40.1751 11.071 39.9564 10.8704 39.6921 10.7246C39.4323 10.5788 39.127 10.5059 38.776 10.5059C38.4297 10.5059 38.1244 10.5788 37.86 10.7246C37.6003 10.8704 37.3815 11.071 37.2038 11.3262C37.0306 11.5768 36.9007 11.8662 36.8141 12.1943C36.7275 12.5179 36.6843 12.862 36.6843 13.2266ZM48.9373 9.60352V10.6494H45.5193V17H44.2546V9.60352H48.9373ZM49.9862 13.3838V13.2266C49.9862 12.6934 50.0636 12.1989 50.2186 11.7432C50.3735 11.2829 50.5968 10.8841 50.8885 10.5469C51.1802 10.2051 51.5334 9.94076 51.9481 9.75391C52.3628 9.5625 52.8276 9.4668 53.3426 9.4668C53.8621 9.4668 54.3293 9.5625 54.744 9.75391C55.1632 9.94076 55.5187 10.2051 55.8104 10.5469C56.1066 10.8841 56.3322 11.2829 56.4871 11.7432C56.6421 12.1989 56.7196 12.6934 56.7196 13.2266V13.3838C56.7196 13.917 56.6421 14.4115 56.4871 14.8672C56.3322 15.3229 56.1066 15.7217 55.8104 16.0635C55.5187 16.4007 55.1655 16.665 54.7508 16.8564C54.3407 17.0433 53.8758 17.1367 53.3563 17.1367C52.8368 17.1367 52.3696 17.0433 51.9549 16.8564C51.5402 16.665 51.1847 16.4007 50.8885 16.0635C50.5968 15.7217 50.3735 15.3229 50.2186 14.8672C50.0636 14.4115 49.9862 13.917 49.9862 13.3838ZM51.2508 13.2266V13.3838C51.2508 13.7529 51.2941 14.1016 51.3807 14.4297C51.4673 14.7533 51.5972 15.0404 51.7703 15.291C51.9481 15.5417 52.1691 15.7399 52.4334 15.8857C52.6978 16.027 53.0054 16.0977 53.3563 16.0977C53.7026 16.0977 54.0057 16.027 54.2655 15.8857C54.5298 15.7399 54.7485 15.5417 54.9217 15.291C55.0949 15.0404 55.2248 14.7533 55.3114 14.4297C55.4025 14.1016 55.4481 13.7529 55.4481 13.3838V13.2266C55.4481 12.862 55.4025 12.5179 55.3114 12.1943C55.2248 11.8662 55.0926 11.5768 54.9149 11.3262C54.7417 11.071 54.5229 10.8704 54.2586 10.7246C53.9989 10.5788 53.6935 10.5059 53.3426 10.5059C52.9963 10.5059 52.6909 10.5788 52.4266 10.7246C52.1668 10.8704 51.9481 11.071 51.7703 11.3262C51.5972 11.5768 51.4673 11.8662 51.3807 12.1943C51.2941 12.5179 51.2508 12.862 51.2508 13.2266ZM59.5663 9.60352H60.831L60.7216 12.3721C60.6943 13.0739 60.6145 13.68 60.4823 14.1904C60.3502 14.7008 60.1816 15.1361 59.9765 15.4961C59.7714 15.8516 59.5413 16.1501 59.286 16.3916C59.0354 16.6331 58.7756 16.8359 58.5068 17H57.8778L57.912 15.9678L58.1718 15.9609C58.3222 15.7832 58.468 15.6009 58.6093 15.4141C58.7506 15.2227 58.8804 14.9971 58.9989 14.7373C59.1174 14.473 59.2154 14.1517 59.2929 13.7734C59.3749 13.3906 59.4273 12.9235 59.4501 12.3721L59.5663 9.60352ZM59.8808 9.60352H64.331V17H63.0663V10.7725H59.8808V9.60352ZM57.5907 15.9609H65.2812V19.1807H64.0165V17H58.8554V19.1807H57.5839L57.5907 15.9609ZM69.3447 13.7803L66.542 9.60352H68.0664L69.9805 12.666H71.457L71.2725 13.7803H69.3447ZM70.0351 13.6504L67.8887 17H66.2891L69.2353 12.7344L70.0351 13.6504ZM72.1064 9.60352V17H70.8418V9.60352H72.1064ZM76.4199 9.60352L73.6172 13.7803H71.6894L71.4912 12.666H72.9746L74.8887 9.60352H76.4199ZM75.0664 17L72.9131 13.6504L73.7266 12.7344L76.666 17H75.0664ZM80.3331 16.2344L82.3907 9.60352H83.7442L80.7774 18.1416C80.7091 18.3239 80.6179 18.5199 80.504 18.7295C80.3946 18.9437 80.2533 19.1465 80.0802 19.3379C79.907 19.5293 79.6973 19.6842 79.4512 19.8027C79.2097 19.9258 78.9203 19.9873 78.5831 19.9873C78.4828 19.9873 78.3552 19.9736 78.2003 19.9463C78.0453 19.9189 77.9359 19.8962 77.8721 19.8779L77.8653 18.8525C77.9018 18.8571 77.9587 18.8617 78.0362 18.8662C78.1182 18.8753 78.1752 18.8799 78.2071 18.8799C78.4942 18.8799 78.738 18.8411 78.9385 18.7637C79.1391 18.6908 79.3077 18.5654 79.4444 18.3877C79.5857 18.2145 79.7065 17.9753 79.8067 17.6699L80.3331 16.2344ZM78.8223 9.60352L80.7432 15.3457L81.0714 16.6787L80.1622 17.1436L77.4415 9.60352H78.8223ZM89.5168 12.7412V13.7734H85.5861V12.7412H89.5168ZM86.6867 9.60352V17H85.422V9.60352H86.6867ZM88.4367 13.3838V13.2266C88.4367 12.6934 88.5141 12.1989 88.6691 11.7432C88.824 11.2829 89.0473 10.8841 89.339 10.5469C89.6352 10.2051 89.9884 9.94076 90.3986 9.75391C90.8133 9.5625 91.2781 9.4668 91.7931 9.4668C92.3172 9.4668 92.7866 9.5625 93.2013 9.75391C93.616 9.94076 93.9692 10.2051 94.2609 10.5469C94.5571 10.8841 94.7827 11.2829 94.9376 11.7432C95.0926 12.1989 95.1701 12.6934 95.1701 13.2266V13.3838C95.1701 13.917 95.0926 14.4115 94.9376 14.8672C94.7827 15.3229 94.5594 15.7217 94.2677 16.0635C93.9761 16.4007 93.6229 16.665 93.2082 16.8564C92.7934 17.0433 92.3263 17.1367 91.8068 17.1367C91.2873 17.1367 90.8201 17.0433 90.4054 16.8564C89.9907 16.665 89.6352 16.4007 89.339 16.0635C89.0473 15.7217 88.824 15.3229 88.6691 14.8672C88.5141 14.4115 88.4367 13.917 88.4367 13.3838ZM89.7082 13.2266V13.3838C89.7082 13.7529 89.7515 14.1016 89.838 14.4297C89.9246 14.7533 90.0545 15.0404 90.2277 15.291C90.4054 15.5417 90.6242 15.7399 90.8839 15.8857C91.1483 16.027 91.4559 16.0977 91.8068 16.0977C92.1577 16.0977 92.463 16.027 92.7228 15.8857C92.9871 15.7399 93.2059 15.5417 93.3791 15.291C93.5522 15.0404 93.6821 14.7533 93.7687 14.4297C93.8598 14.1016 93.9054 13.7529 93.9054 13.3838V13.2266C93.9054 12.862 93.8598 12.5179 93.7687 12.1943C93.6821 11.8662 93.55 11.5768 93.3722 11.3262C93.199 11.071 92.9803 10.8704 92.716 10.7246C92.4516 10.5788 92.144 10.5059 91.7931 10.5059C91.4468 10.5059 91.1437 10.5788 90.8839 10.7246C90.6242 10.8704 90.4054 11.071 90.2277 11.3262C90.0545 11.5768 89.9246 11.8662 89.838 12.1943C89.7515 12.5179 89.7082 12.862 89.7082 13.2266ZM100.115 16.0977C100.416 16.0977 100.694 16.0361 100.949 15.9131C101.205 15.79 101.414 15.6214 101.578 15.4072C101.742 15.1885 101.836 14.9401 101.859 14.6621H103.062C103.039 15.0996 102.891 15.5075 102.617 15.8857C102.349 16.2594 101.995 16.5625 101.558 16.7949C101.12 17.0228 100.64 17.1367 100.115 17.1367C99.5595 17.1367 99.0741 17.0387 98.6594 16.8428C98.2493 16.6468 97.9075 16.3779 97.634 16.0361C97.3651 15.6943 97.1623 15.3024 97.0256 14.8604C96.8935 14.4137 96.8274 13.9421 96.8274 13.4453V13.1582C96.8274 12.6615 96.8935 12.1921 97.0256 11.75C97.1623 11.3034 97.3651 10.9092 97.634 10.5674C97.9075 10.2256 98.2493 9.95671 98.6594 9.76074C99.0741 9.56478 99.5595 9.4668 100.115 9.4668C100.694 9.4668 101.2 9.58529 101.633 9.82227C102.066 10.0547 102.406 10.3737 102.652 10.7793C102.902 11.1803 103.039 11.6361 103.062 12.1465H101.859C101.836 11.8411 101.749 11.5654 101.599 11.3193C101.453 11.0732 101.253 10.8773 100.997 10.7314C100.747 10.5811 100.453 10.5059 100.115 10.5059C99.7281 10.5059 99.4022 10.5833 99.1379 10.7383C98.8782 10.8887 98.6708 11.0938 98.5159 11.3535C98.3655 11.6087 98.2561 11.8936 98.1877 12.208C98.1239 12.5179 98.092 12.8346 98.092 13.1582V13.4453C98.092 13.7689 98.1239 14.0879 98.1877 14.4023C98.2515 14.7168 98.3586 15.0016 98.509 15.2568C98.664 15.512 98.8713 15.7171 99.1311 15.8721C99.3954 16.0225 99.7235 16.0977 100.115 16.0977ZM106.401 13.4727H107.768L105.628 17H104.261L106.401 13.4727ZM107.46 9.60352H110.55V17H109.285V10.6289H107.46C107.1 10.6289 106.806 10.6904 106.578 10.8135C106.351 10.932 106.184 11.0869 106.079 11.2783C105.975 11.4697 105.922 11.668 105.922 11.873C105.922 12.0736 105.97 12.2673 106.066 12.4541C106.161 12.6364 106.312 12.7868 106.517 12.9053C106.722 13.0238 106.986 13.083 107.31 13.083H109.627V14.1221H107.31C106.886 14.1221 106.51 14.0651 106.182 13.9512C105.854 13.8372 105.576 13.68 105.348 13.4795C105.12 13.2744 104.947 13.0352 104.828 12.7617C104.71 12.4837 104.651 12.1829 104.651 11.8594C104.651 11.5358 104.712 11.2373 104.835 10.9639C104.963 10.6904 105.145 10.4512 105.382 10.2461C105.624 10.041 105.918 9.88379 106.264 9.77441C106.615 9.66048 107.014 9.60352 107.46 9.60352ZM119.662 13.4658H118.301V12.6865H119.559C119.91 12.6865 120.188 12.6432 120.393 12.5566C120.598 12.4655 120.744 12.3402 120.831 12.1807C120.917 12.0212 120.96 11.8343 120.96 11.6201C120.96 11.4287 120.91 11.2487 120.81 11.0801C120.714 10.9069 120.559 10.7679 120.345 10.6631C120.131 10.5537 119.844 10.499 119.484 10.499C119.192 10.499 118.928 10.5514 118.691 10.6562C118.454 10.7565 118.265 10.8955 118.124 11.0732C117.987 11.2464 117.918 11.4424 117.918 11.6611H116.654C116.654 11.21 116.781 10.8226 117.037 10.499C117.296 10.1709 117.64 9.91797 118.069 9.74023C118.502 9.5625 118.973 9.47363 119.484 9.47363C119.912 9.47363 120.295 9.52148 120.632 9.61719C120.974 9.70833 121.263 9.84505 121.5 10.0273C121.737 10.2051 121.917 10.4284 122.041 10.6973C122.168 10.9616 122.232 11.2692 122.232 11.6201C122.232 11.8708 122.173 12.1077 122.054 12.3311C121.936 12.5544 121.765 12.7526 121.541 12.9258C121.318 13.0944 121.047 13.2266 120.728 13.3223C120.414 13.418 120.058 13.4658 119.662 13.4658ZM118.301 12.9873H119.662C120.104 12.9873 120.493 13.0306 120.831 13.1172C121.168 13.1992 121.45 13.3223 121.678 13.4863C121.906 13.6504 122.077 13.8532 122.191 14.0947C122.309 14.3317 122.369 14.6051 122.369 14.915C122.369 15.2614 122.298 15.5736 122.157 15.8516C122.02 16.125 121.824 16.3574 121.569 16.5488C121.314 16.7402 121.008 16.8861 120.653 16.9863C120.302 17.0866 119.912 17.1367 119.484 17.1367C119.005 17.1367 118.541 17.0547 118.089 16.8906C117.638 16.7266 117.267 16.4736 116.975 16.1318C116.683 15.7855 116.538 15.3457 116.538 14.8125H117.802C117.802 15.0358 117.873 15.2477 118.014 15.4482C118.155 15.6488 118.351 15.8105 118.602 15.9336C118.857 16.0566 119.151 16.1182 119.484 16.1182C119.839 16.1182 120.136 16.0635 120.373 15.9541C120.61 15.8447 120.787 15.6989 120.906 15.5166C121.029 15.3343 121.09 15.1361 121.09 14.9219C121.09 14.6439 121.036 14.4206 120.926 14.252C120.817 14.0833 120.648 13.9603 120.42 13.8828C120.197 13.8008 119.91 13.7598 119.559 13.7598H118.301V12.9873ZM129.587 11.0254V19.8438H128.315V9.60352H129.477L129.587 11.0254ZM134.57 13.2402V13.3838C134.57 13.9215 134.506 14.4206 134.379 14.8809C134.251 15.3366 134.064 15.7331 133.818 16.0703C133.576 16.4076 133.278 16.6696 132.922 16.8564C132.567 17.0433 132.159 17.1367 131.699 17.1367C131.229 17.1367 130.815 17.0592 130.455 16.9043C130.095 16.7493 129.789 16.5238 129.539 16.2275C129.288 15.9313 129.088 15.5758 128.937 15.1611C128.791 14.7464 128.691 14.2793 128.636 13.7598V12.9941C128.691 12.4473 128.794 11.9574 128.944 11.5244C129.094 11.0915 129.293 10.7223 129.539 10.417C129.789 10.1071 130.092 9.8724 130.448 9.71289C130.803 9.54883 131.214 9.4668 131.678 9.4668C132.143 9.4668 132.556 9.55794 132.916 9.74023C133.276 9.91797 133.579 10.1732 133.825 10.5059C134.071 10.8385 134.256 11.2373 134.379 11.7021C134.506 12.1624 134.57 12.6751 134.57 13.2402ZM133.298 13.3838V13.2402C133.298 12.8711 133.26 12.5247 133.182 12.2012C133.105 11.873 132.984 11.5859 132.82 11.3398C132.66 11.0892 132.455 10.8932 132.205 10.752C131.954 10.6061 131.656 10.5332 131.309 10.5332C130.99 10.5332 130.712 10.5879 130.475 10.6973C130.243 10.8066 130.045 10.9548 129.881 11.1416C129.716 11.3239 129.582 11.5335 129.477 11.7705C129.377 12.0029 129.302 12.2445 129.252 12.4951V14.2656C129.343 14.5846 129.47 14.8854 129.634 15.168C129.798 15.446 130.017 15.6715 130.291 15.8447C130.564 16.0133 130.908 16.0977 131.323 16.0977C131.665 16.0977 131.959 16.027 132.205 15.8857C132.455 15.7399 132.66 15.5417 132.82 15.291C132.984 15.0404 133.105 14.7533 133.182 14.4297C133.26 14.1016 133.298 13.7529 133.298 13.3838ZM136.268 13.3838V13.2266C136.268 12.6934 136.346 12.1989 136.501 11.7432C136.656 11.2829 136.879 10.8841 137.171 10.5469C137.462 10.2051 137.815 9.94076 138.23 9.75391C138.645 9.5625 139.11 9.4668 139.625 9.4668C140.144 9.4668 140.611 9.5625 141.026 9.75391C141.445 9.94076 141.801 10.2051 142.092 10.5469C142.389 10.8841 142.614 11.2829 142.769 11.7432C142.924 12.1989 143.002 12.6934 143.002 13.2266V13.3838C143.002 13.917 142.924 14.4115 142.769 14.8672C142.614 15.3229 142.389 15.7217 142.092 16.0635C141.801 16.4007 141.448 16.665 141.033 16.8564C140.623 17.0433 140.158 17.1367 139.638 17.1367C139.119 17.1367 138.652 17.0433 138.237 16.8564C137.822 16.665 137.467 16.4007 137.171 16.0635C136.879 15.7217 136.656 15.3229 136.501 14.8672C136.346 14.4115 136.268 13.917 136.268 13.3838ZM137.533 13.2266V13.3838C137.533 13.7529 137.576 14.1016 137.663 14.4297C137.749 14.7533 137.879 15.0404 138.052 15.291C138.23 15.5417 138.451 15.7399 138.716 15.8857C138.98 16.027 139.287 16.0977 139.638 16.0977C139.985 16.0977 140.288 16.027 140.548 15.8857C140.812 15.7399 141.031 15.5417 141.204 15.291C141.377 15.0404 141.507 14.7533 141.593 14.4297C141.685 14.1016 141.73 13.7529 141.73 13.3838V13.2266C141.73 12.862 141.685 12.5179 141.593 12.1943C141.507 11.8662 141.375 11.5768 141.197 11.3262C141.024 11.071 140.805 10.8704 140.541 10.7246C140.281 10.5788 139.976 10.5059 139.625 10.5059C139.278 10.5059 138.973 10.5788 138.709 10.7246C138.449 10.8704 138.23 11.071 138.052 11.3262C137.879 11.5768 137.749 11.8662 137.663 12.1943C137.576 12.5179 137.533 12.862 137.533 13.2266ZM147.769 13.4658H146.409V12.6865H147.667C148.018 12.6865 148.296 12.6432 148.501 12.5566C148.706 12.4655 148.852 12.3402 148.938 12.1807C149.025 12.0212 149.068 11.8343 149.068 11.6201C149.068 11.4287 149.018 11.2487 148.918 11.0801C148.822 10.9069 148.667 10.7679 148.453 10.6631C148.239 10.5537 147.952 10.499 147.592 10.499C147.3 10.499 147.036 10.5514 146.799 10.6562C146.562 10.7565 146.373 10.8955 146.231 11.0732C146.095 11.2464 146.026 11.4424 146.026 11.6611H144.762C144.762 11.21 144.889 10.8226 145.144 10.499C145.404 10.1709 145.748 9.91797 146.177 9.74023C146.61 9.5625 147.081 9.47363 147.592 9.47363C148.02 9.47363 148.403 9.52148 148.74 9.61719C149.082 9.70833 149.371 9.84505 149.608 10.0273C149.845 10.2051 150.025 10.4284 150.148 10.6973C150.276 10.9616 150.34 11.2692 150.34 11.6201C150.34 11.8708 150.28 12.1077 150.162 12.3311C150.043 12.5544 149.873 12.7526 149.649 12.9258C149.426 13.0944 149.155 13.2266 148.836 13.3223C148.521 13.418 148.166 13.4658 147.769 13.4658ZM146.409 12.9873H147.769C148.211 12.9873 148.601 13.0306 148.938 13.1172C149.276 13.1992 149.558 13.3223 149.786 13.4863C150.014 13.6504 150.185 13.8532 150.299 14.0947C150.417 14.3317 150.476 14.6051 150.476 14.915C150.476 15.2614 150.406 15.5736 150.264 15.8516C150.128 16.125 149.932 16.3574 149.677 16.5488C149.421 16.7402 149.116 16.8861 148.761 16.9863C148.41 17.0866 148.02 17.1367 147.592 17.1367C147.113 17.1367 146.648 17.0547 146.197 16.8906C145.746 16.7266 145.374 16.4736 145.083 16.1318C144.791 15.7855 144.645 15.3457 144.645 14.8125H145.91C145.91 15.0358 145.981 15.2477 146.122 15.4482C146.263 15.6488 146.459 15.8105 146.71 15.9336C146.965 16.0566 147.259 16.1182 147.592 16.1182C147.947 16.1182 148.243 16.0635 148.48 15.9541C148.717 15.8447 148.895 15.6989 149.013 15.5166C149.137 15.3343 149.198 15.1361 149.198 14.9219C149.198 14.6439 149.143 14.4206 149.034 14.252C148.925 14.0833 148.756 13.9603 148.528 13.8828C148.305 13.8008 148.018 13.7598 147.667 13.7598H146.409V12.9873ZM155.497 16.0977C155.798 16.0977 156.076 16.0361 156.331 15.9131C156.586 15.79 156.796 15.6214 156.96 15.4072C157.124 15.1885 157.217 14.9401 157.24 14.6621H158.443C158.42 15.0996 158.272 15.5075 157.999 15.8857C157.73 16.2594 157.377 16.5625 156.939 16.7949C156.502 17.0228 156.021 17.1367 155.497 17.1367C154.941 17.1367 154.456 17.0387 154.041 16.8428C153.631 16.6468 153.289 16.3779 153.016 16.0361C152.747 15.6943 152.544 15.3024 152.407 14.8604C152.275 14.4137 152.209 13.9421 152.209 13.4453V13.1582C152.209 12.6615 152.275 12.1921 152.407 11.75C152.544 11.3034 152.747 10.9092 153.016 10.5674C153.289 10.2256 153.631 9.95671 154.041 9.76074C154.456 9.56478 154.941 9.4668 155.497 9.4668C156.076 9.4668 156.582 9.58529 157.015 9.82227C157.447 10.0547 157.787 10.3737 158.033 10.7793C158.284 11.1803 158.42 11.6361 158.443 12.1465H157.24C157.217 11.8411 157.131 11.5654 156.98 11.3193C156.835 11.0732 156.634 10.8773 156.379 10.7314C156.128 10.5811 155.834 10.5059 155.497 10.5059C155.11 10.5059 154.784 10.5833 154.519 10.7383C154.26 10.8887 154.052 11.0938 153.897 11.3535C153.747 11.6087 153.638 11.8936 153.569 12.208C153.505 12.5179 153.474 12.8346 153.474 13.1582V13.4453C153.474 13.7689 153.505 14.0879 153.569 14.4023C153.633 14.7168 153.74 15.0016 153.891 15.2568C154.045 15.512 154.253 15.7171 154.513 15.8721C154.777 16.0225 155.105 16.0977 155.497 16.0977ZM161.652 14.9971L165.063 9.60352H166.335V17H165.063V11.6064L161.652 17H160.394V9.60352H161.652V14.9971ZM173.728 9.60352V10.6494H170.152V9.60352H173.728ZM174.842 9.60352V17H173.577V9.60352H174.842ZM169.845 9.60352H171.116L170.925 13.1719C170.893 13.7233 170.841 14.2109 170.768 14.6348C170.699 15.054 170.604 15.4141 170.48 15.7148C170.362 16.0156 170.212 16.2617 170.029 16.4531C169.852 16.64 169.637 16.779 169.387 16.8701C169.136 16.9567 168.847 17 168.519 17H168.122V15.8857L168.396 15.8652C168.592 15.8516 168.758 15.806 168.895 15.7285C169.036 15.651 169.154 15.5371 169.25 15.3867C169.346 15.2318 169.423 15.0335 169.482 14.792C169.546 14.5505 169.594 14.2633 169.626 13.9307C169.662 13.598 169.69 13.2106 169.708 12.7686L169.845 9.60352ZM178.673 9.60352V17H177.408V9.60352H178.673ZM183.526 9.60352L180.02 13.8418H178.249L178.058 12.7344H179.507L181.988 9.60352H183.526ZM182.166 17L179.445 13.6504L180.259 12.7344L183.773 17H182.166ZM184.808 13.3838V13.2266C184.808 12.6934 184.885 12.1989 185.04 11.7432C185.195 11.2829 185.418 10.8841 185.71 10.5469C186.002 10.2051 186.355 9.94076 186.77 9.75391C187.184 9.5625 187.649 9.4668 188.164 9.4668C188.684 9.4668 189.151 9.5625 189.566 9.75391C189.985 9.94076 190.34 10.2051 190.632 10.5469C190.928 10.8841 191.154 11.2829 191.309 11.7432C191.464 12.1989 191.541 12.6934 191.541 13.2266V13.3838C191.541 13.917 191.464 14.4115 191.309 14.8672C191.154 15.3229 190.928 15.7217 190.632 16.0635C190.34 16.4007 189.987 16.665 189.572 16.8564C189.162 17.0433 188.697 17.1367 188.178 17.1367C187.658 17.1367 187.191 17.0433 186.777 16.8564C186.362 16.665 186.006 16.4007 185.71 16.0635C185.418 15.7217 185.195 15.3229 185.04 14.8672C184.885 14.4115 184.808 13.917 184.808 13.3838ZM186.072 13.2266V13.3838C186.072 13.7529 186.116 14.1016 186.202 14.4297C186.289 14.7533 186.419 15.0404 186.592 15.291C186.77 15.5417 186.991 15.7399 187.255 15.8857C187.519 16.027 187.827 16.0977 188.178 16.0977C188.524 16.0977 188.827 16.027 189.087 15.8857C189.351 15.7399 189.57 15.5417 189.743 15.291C189.917 15.0404 190.046 14.7533 190.133 14.4297C190.224 14.1016 190.27 13.7529 190.27 13.3838V13.2266C190.27 12.862 190.224 12.5179 190.133 12.1943C190.046 11.8662 189.914 11.5768 189.737 11.3262C189.563 11.071 189.345 10.8704 189.08 10.7246C188.82 10.5788 188.515 10.5059 188.164 10.5059C187.818 10.5059 187.513 10.5788 187.248 10.7246C186.988 10.8704 186.77 11.071 186.592 11.3262C186.419 11.5768 186.289 11.8662 186.202 12.1943C186.116 12.5179 186.072 12.862 186.072 13.2266ZM197.758 12.7412V13.7734H193.827V12.7412H197.758ZM194.928 9.60352V17H193.663V9.60352H194.928ZM196.678 13.3838V13.2266C196.678 12.6934 196.755 12.1989 196.91 11.7432C197.065 11.2829 197.289 10.8841 197.58 10.5469C197.877 10.2051 198.23 9.94076 198.64 9.75391C199.055 9.5625 199.519 9.4668 200.034 9.4668C200.559 9.4668 201.028 9.5625 201.443 9.75391C201.857 9.94076 202.211 10.2051 202.502 10.5469C202.798 10.8841 203.024 11.2829 203.179 11.7432C203.334 12.1989 203.411 12.6934 203.411 13.2266V13.3838C203.411 13.917 203.334 14.4115 203.179 14.8672C203.024 15.3229 202.801 15.7217 202.509 16.0635C202.217 16.4007 201.864 16.665 201.449 16.8564C201.035 17.0433 200.568 17.1367 200.048 17.1367C199.529 17.1367 199.061 17.0433 198.647 16.8564C198.232 16.665 197.877 16.4007 197.58 16.0635C197.289 15.7217 197.065 15.3229 196.91 14.8672C196.755 14.4115 196.678 13.917 196.678 13.3838ZM197.949 13.2266V13.3838C197.949 13.7529 197.993 14.1016 198.079 14.4297C198.166 14.7533 198.296 15.0404 198.469 15.291C198.647 15.5417 198.866 15.7399 199.125 15.8857C199.39 16.027 199.697 16.0977 200.048 16.0977C200.399 16.0977 200.704 16.027 200.964 15.8857C201.228 15.7399 201.447 15.5417 201.62 15.291C201.794 15.0404 201.923 14.7533 202.01 14.4297C202.101 14.1016 202.147 13.7529 202.147 13.3838V13.2266C202.147 12.862 202.101 12.5179 202.01 12.1943C201.923 11.8662 201.791 11.5768 201.614 11.3262C201.44 11.071 201.222 10.8704 200.957 10.7246C200.693 10.5788 200.385 10.5059 200.034 10.5059C199.688 10.5059 199.385 10.5788 199.125 10.7246C198.866 10.8704 198.647 11.071 198.469 11.3262C198.296 11.5768 198.166 11.8662 198.079 12.1943C197.993 12.5179 197.949 12.862 197.949 13.2266ZM212.304 9.60352V17H211.033V9.60352H212.304ZM214.786 9.60352V10.6289H208.599V9.60352H214.786ZM220.702 15.7354V11.9277C220.702 11.6361 220.642 11.3831 220.524 11.1689C220.41 10.9502 220.237 10.7816 220.004 10.6631C219.772 10.5446 219.485 10.4854 219.143 10.4854C218.824 10.4854 218.544 10.54 218.302 10.6494C218.065 10.7588 217.878 10.9023 217.742 11.0801C217.61 11.2578 217.543 11.4492 217.543 11.6543H216.279C216.279 11.39 216.347 11.1279 216.484 10.8682C216.621 10.6084 216.817 10.3737 217.072 10.1641C217.332 9.94987 217.641 9.78125 218.001 9.6582C218.366 9.5306 218.772 9.4668 219.218 9.4668C219.756 9.4668 220.23 9.55794 220.64 9.74023C221.055 9.92253 221.378 10.1982 221.611 10.5674C221.848 10.932 221.966 11.39 221.966 11.9414V15.3867C221.966 15.6328 221.987 15.8949 222.028 16.1729C222.073 16.4508 222.14 16.6901 222.226 16.8906V17H220.907C220.843 16.8542 220.793 16.6605 220.756 16.4189C220.72 16.1729 220.702 15.945 220.702 15.7354ZM220.92 12.5156L220.934 13.4043H219.656C219.296 13.4043 218.974 13.4339 218.692 13.4932C218.409 13.5479 218.172 13.6322 217.981 13.7461C217.79 13.86 217.644 14.0036 217.543 14.1768C217.443 14.3454 217.393 14.5436 217.393 14.7715C217.393 15.0039 217.445 15.2158 217.55 15.4072C217.655 15.5986 217.812 15.7513 218.022 15.8652C218.236 15.9746 218.498 16.0293 218.808 16.0293C219.195 16.0293 219.537 15.9473 219.834 15.7832C220.13 15.6191 220.364 15.4186 220.538 15.1816C220.715 14.9447 220.811 14.7145 220.825 14.4912L221.365 15.0996C221.333 15.291 221.246 15.5029 221.105 15.7354C220.964 15.9678 220.775 16.1911 220.538 16.4053C220.305 16.6149 220.027 16.7904 219.704 16.9316C219.385 17.0684 219.025 17.1367 218.624 17.1367C218.122 17.1367 217.682 17.0387 217.304 16.8428C216.931 16.6468 216.639 16.3848 216.429 16.0566C216.224 15.724 216.122 15.3525 216.122 14.9424C216.122 14.5459 216.199 14.1973 216.354 13.8965C216.509 13.5911 216.732 13.3382 217.024 13.1377C217.316 12.9326 217.667 12.7777 218.077 12.6729C218.487 12.568 218.945 12.5156 219.451 12.5156H220.92ZM233.197 9.60352V10.6494H229.458V9.60352H233.197ZM229.642 9.60352V17H228.378V9.60352H229.642ZM234.318 9.60352V17H233.047V9.60352H234.318ZM238.033 11.0254V19.8438H236.761V9.60352H237.924L238.033 11.0254ZM243.016 13.2402V13.3838C243.016 13.9215 242.953 14.4206 242.825 14.8809C242.697 15.3366 242.51 15.7331 242.264 16.0703C242.023 16.4076 241.724 16.6696 241.369 16.8564C241.013 17.0433 240.606 17.1367 240.145 17.1367C239.676 17.1367 239.261 17.0592 238.901 16.9043C238.541 16.7493 238.236 16.5238 237.985 16.2275C237.734 15.9313 237.534 15.5758 237.384 15.1611C237.238 14.7464 237.137 14.2793 237.083 13.7598V12.9941C237.137 12.4473 237.24 11.9574 237.39 11.5244C237.541 11.0915 237.739 10.7223 237.985 10.417C238.236 10.1071 238.539 9.8724 238.894 9.71289C239.25 9.54883 239.66 9.4668 240.125 9.4668C240.59 9.4668 241.002 9.55794 241.362 9.74023C241.722 9.91797 242.025 10.1732 242.271 10.5059C242.517 10.8385 242.702 11.2373 242.825 11.7021C242.953 12.1624 243.016 12.6751 243.016 13.2402ZM241.745 13.3838V13.2402C241.745 12.8711 241.706 12.5247 241.629 12.2012C241.551 11.873 241.43 11.5859 241.266 11.3398C241.107 11.0892 240.902 10.8932 240.651 10.752C240.4 10.6061 240.102 10.5332 239.756 10.5332C239.437 10.5332 239.159 10.5879 238.922 10.6973C238.689 10.8066 238.491 10.9548 238.327 11.1416C238.163 11.3239 238.028 11.5335 237.924 11.7705C237.823 12.0029 237.748 12.2445 237.698 12.4951V14.2656C237.789 14.5846 237.917 14.8854 238.081 15.168C238.245 15.446 238.464 15.6715 238.737 15.8447C239.01 16.0133 239.355 16.0977 239.769 16.0977C240.111 16.0977 240.405 16.027 240.651 15.8857C240.902 15.7399 241.107 15.5417 241.266 15.291C241.43 15.0404 241.551 14.7533 241.629 14.4297C241.706 14.1016 241.745 13.7529 241.745 13.3838ZM246.417 14.9971L249.828 9.60352H251.099V17H249.828V11.6064L246.417 17H245.159V9.60352H246.417V14.9971ZM254.917 14.9971L258.328 9.60352H259.6V17H258.328V11.6064L254.917 17H253.659V9.60352H254.917V14.9971ZM257.638 6.92383H258.663C258.663 7.2793 258.581 7.59603 258.417 7.87402C258.253 8.14746 258.018 8.36165 257.713 8.5166C257.407 8.67155 257.045 8.74902 256.626 8.74902C255.992 8.74902 255.491 8.5804 255.122 8.24316C254.757 7.90137 254.575 7.46159 254.575 6.92383H255.6C255.6 7.19271 255.678 7.42969 255.833 7.63477C255.988 7.83984 256.252 7.94238 256.626 7.94238C256.99 7.94238 257.25 7.83984 257.405 7.63477C257.56 7.42969 257.638 7.19271 257.638 6.92383ZM266.302 15.3184L268.817 9.60352H270.034L266.739 17H265.864L262.583 9.60352H263.8L266.302 15.3184ZM263.431 9.60352V17H262.166V9.60352H263.431ZM269.132 17V9.60352H270.403V17H269.132ZM277.222 15.7354V11.9277C277.222 11.6361 277.163 11.3831 277.044 11.1689C276.93 10.9502 276.757 10.7816 276.524 10.6631C276.292 10.5446 276.005 10.4854 275.663 10.4854C275.344 10.4854 275.064 10.54 274.822 10.6494C274.585 10.7588 274.399 10.9023 274.262 11.0801C274.13 11.2578 274.064 11.4492 274.064 11.6543H272.799C272.799 11.39 272.867 11.1279 273.004 10.8682C273.141 10.6084 273.337 10.3737 273.592 10.1641C273.852 9.94987 274.162 9.78125 274.522 9.6582C274.886 9.5306 275.292 9.4668 275.738 9.4668C276.276 9.4668 276.75 9.55794 277.16 9.74023C277.575 9.92253 277.899 10.1982 278.131 10.5674C278.368 10.932 278.486 11.39 278.486 11.9414V15.3867C278.486 15.6328 278.507 15.8949 278.548 16.1729C278.594 16.4508 278.66 16.6901 278.746 16.8906V17H277.427C277.363 16.8542 277.313 16.6605 277.276 16.4189C277.24 16.1729 277.222 15.945 277.222 15.7354ZM277.441 12.5156L277.454 13.4043H276.176C275.816 13.4043 275.495 13.4339 275.212 13.4932C274.929 13.5479 274.692 13.6322 274.501 13.7461C274.31 13.86 274.164 14.0036 274.064 14.1768C273.963 14.3454 273.913 14.5436 273.913 14.7715C273.913 15.0039 273.966 15.2158 274.07 15.4072C274.175 15.5986 274.332 15.7513 274.542 15.8652C274.756 15.9746 275.018 16.0293 275.328 16.0293C275.716 16.0293 276.057 15.9473 276.354 15.7832C276.65 15.6191 276.885 15.4186 277.058 15.1816C277.235 14.9447 277.331 14.7145 277.345 14.4912L277.885 15.0996C277.853 15.291 277.766 15.5029 277.625 15.7354C277.484 15.9678 277.295 16.1911 277.058 16.4053C276.825 16.6149 276.547 16.7904 276.224 16.9316C275.905 17.0684 275.545 17.1367 275.144 17.1367C274.642 17.1367 274.203 17.0387 273.824 16.8428C273.451 16.6468 273.159 16.3848 272.949 16.0566C272.744 15.724 272.642 15.3525 272.642 14.9424C272.642 14.5459 272.719 14.1973 272.874 13.8965C273.029 13.5911 273.252 13.3382 273.544 13.1377C273.836 12.9326 274.187 12.7777 274.597 12.6729C275.007 12.568 275.465 12.5156 275.971 12.5156H277.441ZM285.107 12.7412V13.7734H281.176V12.7412H285.107ZM282.277 9.60352V17H281.012V9.60352H282.277ZM284.027 13.3838V13.2266C284.027 12.6934 284.104 12.1989 284.259 11.7432C284.414 11.2829 284.637 10.8841 284.929 10.5469C285.225 10.2051 285.578 9.94076 285.988 9.75391C286.403 9.5625 286.868 9.4668 287.383 9.4668C287.907 9.4668 288.376 9.5625 288.791 9.75391C289.206 9.94076 289.559 10.2051 289.851 10.5469C290.147 10.8841 290.373 11.2829 290.527 11.7432C290.682 12.1989 290.76 12.6934 290.76 13.2266V13.3838C290.76 13.917 290.682 14.4115 290.527 14.8672C290.373 15.3229 290.149 15.7217 289.858 16.0635C289.566 16.4007 289.213 16.665 288.798 16.8564C288.383 17.0433 287.916 17.1367 287.397 17.1367C286.877 17.1367 286.41 17.0433 285.995 16.8564C285.581 16.665 285.225 16.4007 284.929 16.0635C284.637 15.7217 284.414 15.3229 284.259 14.8672C284.104 14.4115 284.027 13.917 284.027 13.3838ZM285.298 13.2266V13.3838C285.298 13.7529 285.341 14.1016 285.428 14.4297C285.514 14.7533 285.644 15.0404 285.818 15.291C285.995 15.5417 286.214 15.7399 286.474 15.8857C286.738 16.027 287.046 16.0977 287.397 16.0977C287.748 16.0977 288.053 16.027 288.313 15.8857C288.577 15.7399 288.796 15.5417 288.969 15.291C289.142 15.0404 289.272 14.7533 289.359 14.4297C289.45 14.1016 289.495 13.7529 289.495 13.3838V13.2266C289.495 12.862 289.45 12.5179 289.359 12.1943C289.272 11.8662 289.14 11.5768 288.962 11.3262C288.789 11.071 288.57 10.8704 288.306 10.7246C288.041 10.5788 287.734 10.5059 287.383 10.5059C287.037 10.5059 286.734 10.5788 286.474 10.7246C286.214 10.8704 285.995 11.071 285.818 11.3262C285.644 11.5768 285.514 11.8662 285.428 12.1943C285.341 12.5179 285.298 12.862 285.298 13.2266Z" fill="#757575"/>
<path d="M299.912 13.6982L302.544 7.04688H304.062L300.541 15.3389C300.441 15.5713 300.329 15.7969 300.206 16.0156C300.083 16.2298 299.933 16.4212 299.755 16.5898C299.577 16.7585 299.356 16.8929 299.092 16.9932C298.832 17.0934 298.509 17.1436 298.121 17.1436C298.012 17.1436 297.882 17.1367 297.732 17.123C297.581 17.1139 297.483 17.1025 297.438 17.0889L297.479 16.0361C297.529 16.0452 297.627 16.0544 297.773 16.0635C297.919 16.068 298.026 16.0703 298.094 16.0703C298.354 16.0703 298.559 16.0179 298.709 15.9131C298.86 15.8083 298.98 15.6761 299.072 15.5166C299.167 15.3525 299.254 15.1862 299.331 15.0176L299.912 13.6982ZM297.677 7.04688L300.446 13.2471L300.774 14.4707L299.666 14.5527L296.201 7.04688H297.677ZM309.417 15.3184L311.933 9.60352H313.15L309.855 17H308.98L305.699 9.60352H306.915L309.417 15.3184ZM306.546 9.60352V17H305.282V9.60352H306.546ZM312.247 17V9.60352H313.519V17H312.247ZM315.641 13.3838V13.2266C315.641 12.6934 315.719 12.1989 315.874 11.7432C316.028 11.2829 316.252 10.8841 316.543 10.5469C316.835 10.2051 317.188 9.94076 317.603 9.75391C318.018 9.5625 318.483 9.4668 318.998 9.4668C319.517 9.4668 319.984 9.5625 320.399 9.75391C320.818 9.94076 321.174 10.2051 321.465 10.5469C321.762 10.8841 321.987 11.2829 322.142 11.7432C322.297 12.1989 322.374 12.6934 322.374 13.2266V13.3838C322.374 13.917 322.297 14.4115 322.142 14.8672C321.987 15.3229 321.762 15.7217 321.465 16.0635C321.174 16.4007 320.82 16.665 320.406 16.8564C319.996 17.0433 319.531 17.1367 319.011 17.1367C318.492 17.1367 318.025 17.0433 317.61 16.8564C317.195 16.665 316.84 16.4007 316.543 16.0635C316.252 15.7217 316.028 15.3229 315.874 14.8672C315.719 14.4115 315.641 13.917 315.641 13.3838ZM316.906 13.2266V13.3838C316.906 13.7529 316.949 14.1016 317.036 14.4297C317.122 14.7533 317.252 15.0404 317.425 15.291C317.603 15.5417 317.824 15.7399 318.088 15.8857C318.353 16.027 318.66 16.0977 319.011 16.0977C319.358 16.0977 319.661 16.027 319.92 15.8857C320.185 15.7399 320.403 15.5417 320.577 15.291C320.75 15.0404 320.88 14.7533 320.966 14.4297C321.057 14.1016 321.103 13.7529 321.103 13.3838V13.2266C321.103 12.862 321.057 12.5179 320.966 12.1943C320.88 11.8662 320.748 11.5768 320.57 11.3262C320.397 11.071 320.178 10.8704 319.914 10.7246C319.654 10.5788 319.348 10.5059 318.998 10.5059C318.651 10.5059 318.346 10.5788 318.082 10.7246C317.822 10.8704 317.603 11.071 317.425 11.3262C317.252 11.5768 317.122 11.8662 317.036 12.1943C316.949 12.5179 316.906 12.862 316.906 13.2266ZM327.853 13.7461H325.426L325.413 12.7344H327.395C327.787 12.7344 328.113 12.6956 328.373 12.6182C328.637 12.5407 328.835 12.4245 328.967 12.2695C329.1 12.1146 329.166 11.9232 329.166 11.6953C329.166 11.5176 329.127 11.3626 329.049 11.2305C328.976 11.0938 328.865 10.9821 328.714 10.8955C328.564 10.8044 328.377 10.7383 328.154 10.6973C327.935 10.6517 327.678 10.6289 327.381 10.6289H325.761V17H324.497V9.60352H327.381C327.851 9.60352 328.272 9.64453 328.646 9.72656C329.024 9.80859 329.346 9.93392 329.61 10.1025C329.879 10.2666 330.084 10.4762 330.225 10.7314C330.366 10.9867 330.437 11.2874 330.437 11.6338C330.437 11.8571 330.391 12.069 330.3 12.2695C330.209 12.4701 330.075 12.6478 329.897 12.8027C329.719 12.9577 329.501 13.0853 329.241 13.1855C328.981 13.2812 328.683 13.3428 328.345 13.3701L327.853 13.7461ZM327.853 17H324.968L325.597 15.9746H327.853C328.204 15.9746 328.496 15.9313 328.728 15.8447C328.961 15.7536 329.134 15.626 329.248 15.4619C329.366 15.2933 329.425 15.0928 329.425 14.8604C329.425 14.6279 329.366 14.4297 329.248 14.2656C329.134 14.097 328.961 13.9694 328.728 13.8828C328.496 13.7917 328.204 13.7461 327.853 13.7461H325.932L325.946 12.7344H328.345L328.803 13.1172C329.209 13.1491 329.553 13.2493 329.836 13.418C330.118 13.5866 330.332 13.8008 330.478 14.0605C330.624 14.3158 330.697 14.5938 330.697 14.8945C330.697 15.2409 330.631 15.5462 330.499 15.8105C330.371 16.0749 330.184 16.2959 329.938 16.4736C329.692 16.6468 329.393 16.779 329.043 16.8701C328.692 16.9567 328.295 17 327.853 17ZM334.179 14.9971L337.59 9.60352H338.862V17H337.59V11.6064L334.179 17H332.922V9.60352H334.179V14.9971ZM346.538 9.60352H347.803L347.693 12.3721C347.666 13.0739 347.586 13.68 347.454 14.1904C347.322 14.7008 347.153 15.1361 346.948 15.4961C346.743 15.8516 346.513 16.1501 346.258 16.3916C346.007 16.6331 345.747 16.8359 345.478 17H344.849L344.884 15.9678L345.143 15.9609C345.294 15.7832 345.44 15.6009 345.581 15.4141C345.722 15.2227 345.852 14.9971 345.97 14.7373C346.089 14.473 346.187 14.1517 346.264 13.7734C346.346 13.3906 346.399 12.9235 346.422 12.3721L346.538 9.60352ZM346.852 9.60352H351.303V17H350.038V10.7725H346.852V9.60352ZM344.562 15.9609H352.253V19.1807H350.988V17H345.827V19.1807H344.555L344.562 15.9609ZM353.739 13.3838V13.2266C353.739 12.6934 353.817 12.1989 353.972 11.7432C354.127 11.2829 354.35 10.8841 354.641 10.5469C354.933 10.2051 355.286 9.94076 355.701 9.75391C356.116 9.5625 356.581 9.4668 357.096 9.4668C357.615 9.4668 358.082 9.5625 358.497 9.75391C358.916 9.94076 359.272 10.2051 359.563 10.5469C359.86 10.8841 360.085 11.2829 360.24 11.7432C360.395 12.1989 360.473 12.6934 360.473 13.2266V13.3838C360.473 13.917 360.395 14.4115 360.24 14.8672C360.085 15.3229 359.86 15.7217 359.563 16.0635C359.272 16.4007 358.918 16.665 358.504 16.8564C358.094 17.0433 357.629 17.1367 357.109 17.1367C356.59 17.1367 356.123 17.0433 355.708 16.8564C355.293 16.665 354.938 16.4007 354.641 16.0635C354.35 15.7217 354.127 15.3229 353.972 14.8672C353.817 14.4115 353.739 13.917 353.739 13.3838ZM355.004 13.2266V13.3838C355.004 13.7529 355.047 14.1016 355.134 14.4297C355.22 14.7533 355.35 15.0404 355.523 15.291C355.701 15.5417 355.922 15.7399 356.186 15.8857C356.451 16.027 356.758 16.0977 357.109 16.0977C357.456 16.0977 357.759 16.027 358.018 15.8857C358.283 15.7399 358.502 15.5417 358.675 15.291C358.848 15.0404 358.978 14.7533 359.064 14.4297C359.155 14.1016 359.201 13.7529 359.201 13.3838V13.2266C359.201 12.862 359.155 12.5179 359.064 12.1943C358.978 11.8662 358.846 11.5768 358.668 11.3262C358.495 11.071 358.276 10.8704 358.012 10.7246C357.752 10.5788 357.446 10.5059 357.096 10.5059C356.749 10.5059 356.444 10.5788 356.18 10.7246C355.92 10.8704 355.701 11.071 355.523 11.3262C355.35 11.5768 355.22 11.8662 355.134 12.1943C355.047 12.5179 355.004 12.862 355.004 13.2266ZM367.257 9.60352V10.6494H363.839V17H362.574V9.60352H367.257ZM368.306 13.3838V13.2266C368.306 12.6934 368.383 12.1989 368.538 11.7432C368.693 11.2829 368.916 10.8841 369.208 10.5469C369.5 10.2051 369.853 9.94076 370.268 9.75391C370.682 9.5625 371.147 9.4668 371.662 9.4668C372.182 9.4668 372.649 9.5625 373.064 9.75391C373.483 9.94076 373.838 10.2051 374.13 10.5469C374.426 10.8841 374.652 11.2829 374.807 11.7432C374.962 12.1989 375.039 12.6934 375.039 13.2266V13.3838C375.039 13.917 374.962 14.4115 374.807 14.8672C374.652 15.3229 374.426 15.7217 374.13 16.0635C373.838 16.4007 373.485 16.665 373.07 16.8564C372.66 17.0433 372.195 17.1367 371.676 17.1367C371.156 17.1367 370.689 17.0433 370.274 16.8564C369.86 16.665 369.504 16.4007 369.208 16.0635C368.916 15.7217 368.693 15.3229 368.538 14.8672C368.383 14.4115 368.306 13.917 368.306 13.3838ZM369.57 13.2266V13.3838C369.57 13.7529 369.614 14.1016 369.7 14.4297C369.787 14.7533 369.917 15.0404 370.09 15.291C370.268 15.5417 370.489 15.7399 370.753 15.8857C371.017 16.027 371.325 16.0977 371.676 16.0977C372.022 16.0977 372.325 16.027 372.585 15.8857C372.849 15.7399 373.068 15.5417 373.241 15.291C373.414 15.0404 373.544 14.7533 373.631 14.4297C373.722 14.1016 373.768 13.7529 373.768 13.3838V13.2266C373.768 12.862 373.722 12.5179 373.631 12.1943C373.544 11.8662 373.412 11.5768 373.234 11.3262C373.061 11.071 372.842 10.8704 372.578 10.7246C372.318 10.5788 372.013 10.5059 371.662 10.5059C371.316 10.5059 371.01 10.5788 370.746 10.7246C370.486 10.8704 370.268 11.071 370.09 11.3262C369.917 11.5768 369.787 11.8662 369.7 12.1943C369.614 12.5179 369.57 12.862 369.57 13.2266ZM380.518 13.7461H378.091L378.077 12.7344H380.06C380.452 12.7344 380.777 12.6956 381.037 12.6182C381.302 12.5407 381.5 12.4245 381.632 12.2695C381.764 12.1146 381.83 11.9232 381.83 11.6953C381.83 11.5176 381.791 11.3626 381.714 11.2305C381.641 11.0938 381.529 10.9821 381.379 10.8955C381.229 10.8044 381.042 10.7383 380.818 10.6973C380.6 10.6517 380.342 10.6289 380.046 10.6289H378.426V17H377.161V9.60352H380.046C380.515 9.60352 380.937 9.64453 381.311 9.72656C381.689 9.80859 382.01 9.93392 382.275 10.1025C382.543 10.2666 382.748 10.4762 382.89 10.7314C383.031 10.9867 383.102 11.2874 383.102 11.6338C383.102 11.8571 383.056 12.069 382.965 12.2695C382.874 12.4701 382.739 12.6478 382.562 12.8027C382.384 12.9577 382.165 13.0853 381.905 13.1855C381.646 13.2812 381.347 13.3428 381.01 13.3701L380.518 13.7461ZM380.518 17H377.633L378.262 15.9746H380.518C380.869 15.9746 381.16 15.9313 381.393 15.8447C381.625 15.7536 381.798 15.626 381.912 15.4619C382.031 15.2933 382.09 15.0928 382.09 14.8604C382.09 14.6279 382.031 14.4297 381.912 14.2656C381.798 14.097 381.625 13.9694 381.393 13.8828C381.16 13.7917 380.869 13.7461 380.518 13.7461H378.597L378.61 12.7344H381.01L381.468 13.1172C381.873 13.1491 382.218 13.2493 382.5 13.418C382.783 13.5866 382.997 13.8008 383.143 14.0605C383.289 14.3158 383.361 14.5938 383.361 14.8945C383.361 15.2409 383.295 15.5462 383.163 15.8105C383.036 16.0749 382.849 16.2959 382.603 16.4736C382.357 16.6468 382.058 16.779 381.707 16.8701C381.356 16.9567 380.96 17 380.518 17ZM385.142 13.3838V13.2266C385.142 12.6934 385.219 12.1989 385.374 11.7432C385.529 11.2829 385.752 10.8841 386.044 10.5469C386.336 10.2051 386.689 9.94076 387.104 9.75391C387.518 9.5625 387.983 9.4668 388.498 9.4668C389.018 9.4668 389.485 9.5625 389.9 9.75391C390.319 9.94076 390.674 10.2051 390.966 10.5469C391.262 10.8841 391.488 11.2829 391.643 11.7432C391.798 12.1989 391.875 12.6934 391.875 13.2266V13.3838C391.875 13.917 391.798 14.4115 391.643 14.8672C391.488 15.3229 391.262 15.7217 390.966 16.0635C390.674 16.4007 390.321 16.665 389.906 16.8564C389.496 17.0433 389.031 17.1367 388.512 17.1367C387.992 17.1367 387.525 17.0433 387.111 16.8564C386.696 16.665 386.34 16.4007 386.044 16.0635C385.752 15.7217 385.529 15.3229 385.374 14.8672C385.219 14.4115 385.142 13.917 385.142 13.3838ZM386.406 13.2266V13.3838C386.406 13.7529 386.45 14.1016 386.536 14.4297C386.623 14.7533 386.753 15.0404 386.926 15.291C387.104 15.5417 387.325 15.7399 387.589 15.8857C387.853 16.027 388.161 16.0977 388.512 16.0977C388.858 16.0977 389.161 16.027 389.421 15.8857C389.685 15.7399 389.904 15.5417 390.077 15.291C390.251 15.0404 390.38 14.7533 390.467 14.4297C390.558 14.1016 390.604 13.7529 390.604 13.3838V13.2266C390.604 12.862 390.558 12.5179 390.467 12.1943C390.38 11.8662 390.248 11.5768 390.07 11.3262C389.897 11.071 389.679 10.8704 389.414 10.7246C389.154 10.5788 388.849 10.5059 388.498 10.5059C388.152 10.5059 387.847 10.5788 387.582 10.7246C387.322 10.8704 387.104 11.071 386.926 11.3262C386.753 11.5768 386.623 11.8662 386.536 12.1943C386.45 12.5179 386.406 12.862 386.406 13.2266ZM395.146 11.0254V19.8438H393.874V9.60352H395.036L395.146 11.0254ZM400.129 13.2402V13.3838C400.129 13.9215 400.065 14.4206 399.938 14.8809C399.81 15.3366 399.623 15.7331 399.377 16.0703C399.136 16.4076 398.837 16.6696 398.482 16.8564C398.126 17.0433 397.718 17.1367 397.258 17.1367C396.789 17.1367 396.374 17.0592 396.014 16.9043C395.654 16.7493 395.349 16.5238 395.098 16.2275C394.847 15.9313 394.647 15.5758 394.496 15.1611C394.351 14.7464 394.25 14.2793 394.196 13.7598V12.9941C394.25 12.4473 394.353 11.9574 394.503 11.5244C394.654 11.0915 394.852 10.7223 395.098 10.417C395.349 10.1071 395.652 9.8724 396.007 9.71289C396.363 9.54883 396.773 9.4668 397.238 9.4668C397.702 9.4668 398.115 9.55794 398.475 9.74023C398.835 9.91797 399.138 10.1732 399.384 10.5059C399.63 10.8385 399.815 11.2373 399.938 11.7021C400.065 12.1624 400.129 12.6751 400.129 13.2402ZM398.858 13.3838V13.2402C398.858 12.8711 398.819 12.5247 398.741 12.2012C398.664 11.873 398.543 11.5859 398.379 11.3398C398.22 11.0892 398.015 10.8932 397.764 10.752C397.513 10.6061 397.215 10.5332 396.868 10.5332C396.549 10.5332 396.271 10.5879 396.034 10.6973C395.802 10.8066 395.604 10.9548 395.44 11.1416C395.276 11.3239 395.141 11.5335 395.036 11.7705C394.936 12.0029 394.861 12.2445 394.811 12.4951V14.2656C394.902 14.5846 395.03 14.8854 395.194 15.168C395.358 15.446 395.576 15.6715 395.85 15.8447C396.123 16.0133 396.467 16.0977 396.882 16.0977C397.224 16.0977 397.518 16.027 397.764 15.8857C398.015 15.7399 398.22 15.5417 398.379 15.291C398.543 15.0404 398.664 14.7533 398.741 14.4297C398.819 14.1016 398.858 13.7529 398.858 13.3838ZM404.159 16.2344L406.216 9.60352H407.57L404.603 18.1416C404.535 18.3239 404.443 18.5199 404.329 18.7295C404.22 18.9437 404.079 19.1465 403.906 19.3379C403.732 19.5293 403.523 19.6842 403.277 19.8027C403.035 19.9258 402.746 19.9873 402.409 19.9873C402.308 19.9873 402.181 19.9736 402.026 19.9463C401.871 19.9189 401.761 19.8962 401.698 19.8779L401.691 18.8525C401.727 18.8571 401.784 18.8617 401.862 18.8662C401.944 18.8753 402.001 18.8799 402.033 18.8799C402.32 18.8799 402.563 18.8411 402.764 18.7637C402.965 18.6908 403.133 18.5654 403.27 18.3877C403.411 18.2145 403.532 17.9753 403.632 17.6699L404.159 16.2344ZM402.648 9.60352L404.569 15.3457L404.897 16.6787L403.988 17.1436L401.267 9.60352H402.648Z" fill="#2196F3"/>
<path d="M295.674 18.3672H407.741V19.0508H295.674V18.3672Z" fill="#2196F3"/>
</svg>
